<svg xmlns="http://www.w3.org/2000/svg" viewBox="0 0 512 512">
  <defs>
    <linearGradient id="grad1" x1="0%" y1="0%" x2="100%" y2="100%">
      <stop offset="0%" style="stop-color:#EDB879;stop-opacity:1" />
      <stop offset="100%" style="stop-color:#D4A574;stop-opacity:1" />
    </linearGradient>
    <linearGradient id="grad2" x1="0%" y1="0%" x2="100%" y2="100%">
      <stop offset="0%" style="stop-color:#f2b179;stop-opacity:1" />
      <stop offset="100%" style="stop-color:#eaa664;stop-opacity:1" />
    </linearGradient>
    <linearGradient id="grad3" x1="0%" y1="0%" x2="100%" y2="100%">
      <stop offset="0%" style="stop-color:#f59563;stop-opacity:1" />
      <stop offset="100%" style="stop-color:#ea9355;stop-opacity:1" />
    </linearGradient>
    <linearGradient id="grad4" x1="0%" y1="0%" x2="100%" y2="100%">
      <stop offset="0%" style="stop-color:#f67c5f;stop-opacity:1" />
      <stop offset="100%" style="stop-color:#f05d49;stop-opacity:1" />
    </linearGradient>
    <linearGradient id="grad5" x1="0%" y1="0%" x2="100%" y2="100%">
      <stop offset="0%" style="stop-color:#edcc61;stop-opacity:1" />
      <stop offset="100%" style="stop-color:#e3b84f;stop-opacity:1" />
    </linearGradient>
  </defs>

  <!-- Background -->
  <rect width="512" height="512" fill="#f5f5f5" rx="100"/>

  <!-- Grid background -->
  <g fill="#efefef" opacity="0.5">
    <rect x="60" y="60" width="96" height="96" rx="16"/>
    <rect x="180" y="60" width="96" height="96" rx="16"/>
    <rect x="300" y="60" width="96" height="96" rx="16"/>
    <rect x="420" y="60" width="0" height="96" rx="16"/>

    <rect x="60" y="180" width="96" height="96" rx="16"/>
    <rect x="180" y="180" width="96" height="96" rx="16"/>
    <rect x="300" y="180" width="96" height="96" rx="16"/>
    <rect x="420" y="180" width="0" height="96" rx="16"/>

    <rect x="60" y="300" width="96" height="96" rx="16"/>
    <rect x="180" y="300" width="96" height="96" rx="16"/>
    <rect x="300" y="300" width="96" height="96" rx="16"/>
    <rect x="420" y="300" width="0" height="96" rx="16"/>

    <rect x="60" y="420" width="96" height="96" rx="16"/>
    <rect x="180" y="420" width="96" height="96" rx="16"/>
    <rect x="300" y="420" width="96" height="96" rx="16"/>
    <rect x="420" y="420" width="0" height="96" rx="16"/>
  </g>

  <!-- Tiles -->
  <rect x="60" y="60" width="96" height="96" fill="url(#grad1)" rx="16" filter="drop-shadow(0 4px 8px rgba(0,0,0,0.1))"/>
  <text x="108" y="108" font-size="52" font-weight="700" fill="white" text-anchor="middle" dominant-baseline="middle">2</text>

  <rect x="180" y="60" width="96" height="96" fill="url(#grad2)" rx="16" filter="drop-shadow(0 4px 8px rgba(0,0,0,0.1))"/>
  <text x="228" y="108" font-size="52" font-weight="700" fill="white" text-anchor="middle" dominant-baseline="middle">4</text>

  <rect x="300" y="60" width="96" height="96" fill="url(#grad3)" rx="16" filter="drop-shadow(0 4px 8px rgba(0,0,0,0.1))"/>
  <text x="348" y="108" font-size="52" font-weight="700" fill="white" text-anchor="middle" dominant-baseline="middle">8</text>

  <rect x="60" y="180" width="96" height="96" fill="url(#grad2)" rx="16" filter="drop-shadow(0 4px 8px rgba(0,0,0,0.1))"/>
  <text x="108" y="228" font-size="52" font-weight="700" fill="white" text-anchor="middle" dominant-baseline="middle">4</text>

  <rect x="180" y="180" width="96" height="96" fill="url(#grad3)" rx="16" filter="drop-shadow(0 4px 8px rgba(0,0,0,0.1))"/>
  <text x="228" y="228" font-size="52" font-weight="700" fill="white" text-anchor="middle" dominant-baseline="middle">8</text>

  <rect x="300" y="180" width="96" height="96" fill="url(#grad4)" rx="16" filter="drop-shadow(0 4px 8px rgba(0,0,0,0.1))"/>
  <text x="348" y="228" font-size="48" font-weight="700" fill="white" text-anchor="middle" dominant-baseline="middle">16</text>

  <rect x="60" y="300" width="96" height="96" fill="url(#grad4)" rx="16" filter="drop-shadow(0 4px 8px rgba(0,0,0,0.1))"/>
  <text x="108" y="348" font-size="48" font-weight="700" fill="white" text-anchor="middle" dominant-baseline="middle">16</text>

  <rect x="180" y="300" width="96" height="96" fill="url(#grad5)" rx="16" filter="drop-shadow(0 4px 8px rgba(0,0,0,0.1))"/>
  <text x="228" y="348" font-size="48" font-weight="700" fill="white" text-anchor="middle" dominant-baseline="middle">32</text>

  <rect x="300" y="300" width="96" height="96" fill="url(#grad1)" rx="16" filter="drop-shadow(0 4px 8px rgba(0,0,0,0.1))"/>
  <text x="348" y="348" font-size="52" font-weight="700" fill="white" text-anchor="middle" dominant-baseline="middle">2</text>

  <rect x="60" y="420" width="96" height="96" fill="url(#grad5)" rx="16" filter="drop-shadow(0 4px 8px rgba(0,0,0,0.1))"/>
  <text x="108" y="468" font-size="48" font-weight="700" fill="white" text-anchor="middle" dominant-baseline="middle">32</text>

  <rect x="180" y="420" width="96" height="96" fill="url(#grad1)" rx="16" filter="drop-shadow(0 4px 8px rgba(0,0,0,0.1))"/>
  <text x="228" y="468" font-size="52" font-weight="700" fill="white" text-anchor="middle" dominant-baseline="middle">2</text>

  <rect x="300" y="420" width="96" height="96" fill="url(#grad2)" rx="16" filter="drop-shadow(0 4px 8px rgba(0,0,0,0.1))"/>
  <text x="348" y="468" font-size="52" font-weight="700" fill="white" text-anchor="middle" dominant-baseline="middle">4</text>

  <!-- Badge -->
  <circle cx="440" cy="40" r="50" fill="url(#grad1)"/>
  <text x="440" y="40" font-size="60" font-weight="700" fill="white" text-anchor="middle" dominant-baseline="middle">2048</text>
</svg>
