<svg xmlns="http://www.w3.org/2000/svg" viewBox="0 0 192 192">
  <defs>
    <linearGradient id="grad1" x1="0%" y1="0%" x2="100%" y2="100%">
      <stop offset="0%" style="stop-color:#EDB879;stop-opacity:1" />
      <stop offset="100%" style="stop-color:#D4A574;stop-opacity:1" />
    </linearGradient>
    <linearGradient id="grad2" x1="0%" y1="0%" x2="100%" y2="100%">
      <stop offset="0%" style="stop-color:#f2b179;stop-opacity:1" />
      <stop offset="100%" style="stop-color:#eaa664;stop-opacity:1" />
    </linearGradient>
    <linearGradient id="grad3" x1="0%" y1="0%" x2="100%" y2="100%">
      <stop offset="0%" style="stop-color:#f59563;stop-opacity:1" />
      <stop offset="100%" style="stop-color:#ea9355;stop-opacity:1" />
    </linearGradient>
    <linearGradient id="grad4" x1="0%" y1="0%" x2="100%" y2="100%">
      <stop offset="0%" style="stop-color:#f67c5f;stop-opacity:1" />
      <stop offset="100%" style="stop-color:#f05d49;stop-opacity:1" />
    </linearGradient>
  </defs>

  <!-- Background -->
  <rect width="192" height="192" fill="#f5f5f5" rx="40"/>

  <!-- Grid background -->
  <g fill="#efefef" opacity="0.5">
    <rect x="24" y="24" width="36" height="36" rx="6"/>
    <rect x="72" y="24" width="36" height="36" rx="6"/>
    <rect x="120" y="24" width="36" height="36" rx="6"/>
    <rect x="168" y="24" width="0" height="36" rx="6"/>

    <rect x="24" y="72" width="36" height="36" rx="6"/>
    <rect x="72" y="72" width="36" height="36" rx="6"/>
    <rect x="120" y="72" width="36" height="36" rx="6"/>
    <rect x="168" y="72" width="0" height="36" rx="6"/>

    <rect x="24" y="120" width="36" height="36" rx="6"/>
    <rect x="72" y="120" width="36" height="36" rx="6"/>
    <rect x="120" y="120" width="36" height="36" rx="6"/>
    <rect x="168" y="120" width="0" height="36" rx="6"/>
  </g>

  <!-- Tiles -->
  <rect x="24" y="24" width="36" height="36" fill="url(#grad1)" rx="6"/>
  <text x="42" y="48" font-size="20" font-weight="700" fill="white" text-anchor="middle" dominant-baseline="middle">2</text>

  <rect x="72" y="24" width="36" height="36" fill="url(#grad2)" rx="6"/>
  <text x="90" y="48" font-size="20" font-weight="700" fill="white" text-anchor="middle" dominant-baseline="middle">4</text>

  <rect x="120" y="24" width="36" height="36" fill="url(#grad3)" rx="6"/>
  <text x="138" y="48" font-size="20" font-weight="700" fill="white" text-anchor="middle" dominant-baseline="middle">8</text>

  <rect x="24" y="72" width="36" height="36" fill="url(#grad2)" rx="6"/>
  <text x="42" y="96" font-size="20" font-weight="700" fill="white" text-anchor="middle" dominant-baseline="middle">4</text>

  <rect x="72" y="72" width="36" height="36" fill="url(#grad3)" rx="6"/>
  <text x="90" y="96" font-size="20" font-weight="700" fill="white" text-anchor="middle" dominant-baseline="middle">8</text>

  <rect x="120" y="72" width="36" height="36" fill="url(#grad4)" rx="6"/>
  <text x="138" y="96" font-size="18" font-weight="700" fill="white" text-anchor="middle" dominant-baseline="middle">16</text>

  <rect x="24" y="120" width="36" height="36" fill="url(#grad1)" rx="6"/>
  <text x="42" y="144" font-size="20" font-weight="700" fill="white" text-anchor="middle" dominant-baseline="middle">2</text>

  <rect x="72" y="120" width="36" height="36" fill="url(#grad4)" rx="6"/>
  <text x="90" y="144" font-size="18" font-weight="700" fill="white" text-anchor="middle" dominant-baseline="middle">16</text>

  <rect x="120" y="120" width="36" height="36" fill="url(#grad1)" rx="6"/>
  <text x="138" y="144" font-size="20" font-weight="700" fill="white" text-anchor="middle" dominant-baseline="middle">2</text>

  <!-- Badge -->
  <circle cx="168" cy="24" r="20" fill="url(#grad1)"/>
  <text x="168" y="24" font-size="24" font-weight="700" fill="white" text-anchor="middle" dominant-baseline="middle">K</text>
</svg>
